<?xml version="1.0" encoding="UTF-8"?>
<svg xmlns="http://www.w3.org/2000/svg" xmlns:xlink="http://www.w3.org/1999/xlink" width="275pt" height="193pt" viewBox="0 0 275 193" version="1.1">
<g id="surface1">
<path style=" stroke:none;fill-rule:evenodd;fill:rgb(0%,58.823529%,53.333333%);fill-opacity:1;" d="M 81.554688 81.101562 C 81.539062 81.121094 81.535156 81.144531 81.53125 81.160156 L 81.53125 86.464844 C 81.53125 86.503906 81.546875 86.523438 81.582031 86.519531 L 127.859375 86.519531 L 127.859375 108.472656 C 127.859375 109.871094 127.535156 110.871094 126.886719 111.46875 C 126.238281 112.066406 125.214844 112.367188 123.816406 112.367188 L 109.839844 112.367188 C 109.460938 112.363281 109.285156 112.542969 109.300781 112.90625 L 109.300781 116.621094 C 109.285156 116.996094 109.464844 117.179688 109.835938 117.160156 L 159.648438 117.160156 C 160.019531 117.179688 160.199219 117 160.183594 116.613281 L 160.183594 112.914062 C 160.203125 112.53125 160.023438 112.347656 159.632812 112.367188 L 145.667969 112.367188 C 144.269531 112.367188 143.246094 112.066406 142.597656 111.46875 C 141.949219 110.871094 141.625 109.871094 141.625 108.472656 L 141.625 85.179688 L 152.367188 85.179688 C 165.597656 85.179688 175.765625 82.375 182.871094 76.761719 C 189.980469 71.148438 193.535156 63.128906 193.535156 52.703125 C 193.535156 32.695312 180.679688 22.6875 154.96875 22.6875 L 128.296875 22.6875 Z M 141.625 33.046875 L 141.625 74.894531 L 151.027344 74.894531 C 161.632812 74.894531 169.300781 73.179688 174.039062 69.753906 C 178.777344 66.324219 181.148438 60.828125 181.148438 53.265625 C 181.148438 46.457031 178.917969 41.382812 174.460938 38.046875 C 170.007812 34.714844 163.0625 33.046875 153.632812 33.046875 Z M 127.859375 43.71875 L 101.65625 74.886719 L 127.859375 74.886719 Z M 127.859375 43.71875 "/>
<path style=" stroke:none;fill-rule:evenodd;fill:rgb(20.392157%,25.490196%,40%);fill-opacity:1;" d="M 147.226562 169.707031 L 147.226562 139.25 L 157.28125 139.25 C 161.476562 139.25 164.609375 140.105469 166.675781 141.8125 C 168.746094 143.515625 169.78125 145.988281 169.78125 149.230469 C 169.78125 152.496094 168.761719 155.03125 166.722656 156.84375 C 164.683594 158.652344 161.710938 159.554688 157.804688 159.554688 L 152.996094 159.554688 L 152.996094 169.707031 Z M 152.996094 154.523438 L 157.324219 154.523438 C 159.507812 154.523438 161.121094 154.128906 162.152344 153.339844 C 163.1875 152.554688 163.703125 151.226562 163.703125 149.359375 C 163.703125 147.550781 163.195312 146.265625 162.175781 145.507812 C 161.15625 144.75 159.523438 144.371094 157.28125 144.371094 L 152.996094 144.371094 Z M 152.996094 154.523438 "/>
<path style=" stroke:none;fill-rule:nonzero;fill:rgb(20.392157%,25.490196%,40%);fill-opacity:1;" d="M 183.742188 146.339844 L 185.183594 146.339844 L 185.183594 152.027344 L 184.441406 152.027344 C 182.171875 152.027344 180.320312 152.65625 178.890625 153.910156 L 178.890625 169.707031 L 173.121094 169.707031 L 173.121094 151.941406 L 172.160156 146.867188 L 177.929688 146.867188 L 178.5 149.882812 C 179.460938 148.570312 180.335938 147.652344 181.121094 147.128906 C 181.90625 146.601562 182.78125 146.339844 183.742188 146.339844 Z M 183.742188 146.339844 "/>
<path style=" stroke:none;fill-rule:evenodd;fill:rgb(20.392157%,25.490196%,40%);fill-opacity:1;" d="M 198.1875 170.230469 C 195.882812 170.230469 193.859375 169.742188 192.113281 168.765625 C 190.363281 167.789062 189.015625 166.394531 188.066406 164.585938 C 187.121094 162.78125 186.648438 160.679688 186.648438 158.285156 C 186.648438 155.894531 187.121094 153.792969 188.066406 151.984375 C 189.015625 150.175781 190.363281 148.78125 192.113281 147.808594 C 193.859375 146.828125 195.882812 146.339844 198.1875 146.339844 C 200.488281 146.339844 202.515625 146.828125 204.261719 147.808594 C 206.011719 148.78125 207.359375 150.175781 208.304688 151.984375 C 209.253906 153.792969 209.726562 155.894531 209.726562 158.285156 C 209.726562 160.679688 209.253906 162.78125 208.304688 164.585938 C 207.359375 166.394531 206.011719 167.789062 204.261719 168.765625 C 202.515625 169.742188 200.488281 170.230469 198.1875 170.230469 Z M 198.1875 165.464844 C 199.90625 165.464844 201.246094 164.84375 202.207031 163.601562 C 203.171875 162.363281 203.652344 160.589844 203.652344 158.285156 C 203.652344 155.953125 203.171875 154.171875 202.207031 152.949219 C 201.246094 151.722656 199.90625 151.109375 198.1875 151.109375 C 196.46875 151.109375 195.128906 151.722656 194.164062 152.949219 C 193.203125 154.171875 192.722656 155.953125 192.722656 158.285156 C 192.722656 160.589844 193.203125 162.363281 194.164062 163.601562 C 195.128906 164.84375 196.46875 165.464844 198.1875 165.464844 Z M 198.1875 165.464844 "/>
<path style=" stroke:none;fill-rule:nonzero;fill:rgb(20.392157%,25.490196%,40%);fill-opacity:1;" d="M 214.160156 169.707031 L 214.160156 151.152344 L 210.75 151.152344 L 210.75 146.867188 L 214.160156 146.867188 L 214.160156 144.238281 C 214.160156 141.527344 214.785156 139.507812 216.039062 138.179688 C 217.292969 136.851562 219.113281 136.1875 221.503906 136.1875 C 222.40625 136.1875 223.179688 136.273438 223.820312 136.453125 C 224.460938 136.625 225.085938 136.886719 225.699219 137.238281 L 225.699219 142.007812 C 224.417969 141.335938 223.265625 141 222.246094 141 C 221.402344 141 220.804688 141.242188 220.453125 141.722656 C 220.105469 142.203125 219.929688 143.042969 219.929688 144.238281 L 219.929688 146.867188 L 225.261719 146.867188 L 225.261719 151.152344 L 219.929688 151.152344 L 219.929688 169.707031 Z M 214.160156 169.707031 "/>
<path style=" stroke:none;fill-rule:nonzero;fill:rgb(20.392157%,25.490196%,40%);fill-opacity:1;" d="M 231.601562 143.453125 C 230.609375 143.453125 229.765625 143.117188 229.066406 142.445312 C 228.367188 141.773438 228.015625 140.898438 228.015625 139.820312 C 228.015625 138.742188 228.367188 137.867188 229.066406 137.195312 C 229.765625 136.523438 230.609375 136.1875 231.601562 136.1875 C 232.589844 136.1875 233.433594 136.523438 234.136719 137.195312 C 234.835938 137.867188 235.183594 138.742188 235.183594 139.820312 C 235.183594 140.898438 234.835938 141.773438 234.136719 142.445312 C 233.433594 143.117188 232.589844 143.453125 231.601562 143.453125 Z M 231.601562 143.453125 "/>
<path style=" stroke:none;fill-rule:nonzero;fill:rgb(20.392157%,25.490196%,40%);fill-opacity:1;" d="M 228.714844 146.910156 L 234.484375 146.867188 L 234.484375 169.707031 L 228.714844 169.707031 Z M 228.714844 146.910156 "/>
<path style=" stroke:none;fill-rule:nonzero;fill:rgb(20.392157%,25.490196%,40%);fill-opacity:1;" d="M 237.917969 169.707031 L 237.917969 136.714844 L 243.6875 136.714844 L 243.6875 169.707031 Z M 237.917969 169.707031 "/>
<path style=" stroke:none;fill-rule:evenodd;fill:rgb(20.392157%,25.490196%,40%);fill-opacity:1;" d="M 267.925781 158.285156 L 267.925781 160.035156 L 252.0625 160.035156 C 252.292969 161.789062 252.941406 163.128906 254.003906 164.0625 C 255.070312 164.996094 256.492188 165.464844 258.265625 165.464844 C 259.578125 165.464844 261 165.222656 262.53125 164.742188 C 264.058594 164.261719 265.480469 163.59375 266.792969 162.75 L 266.964844 162.75 L 266.964844 167.433594 C 265.800781 168.335938 264.464844 169.03125 262.964844 169.511719 C 261.464844 169.992188 259.882812 170.230469 258.222656 170.230469 C 255.835938 170.230469 253.75 169.75 251.972656 168.789062 C 250.195312 167.828125 248.824219 166.441406 247.863281 164.632812 C 246.902344 162.824219 246.421875 160.707031 246.421875 158.285156 C 246.421875 155.921875 246.882812 153.835938 247.800781 152.027344 C 248.714844 150.222656 250.007812 148.820312 251.667969 147.828125 C 253.328125 146.835938 255.253906 146.339844 257.4375 146.339844 C 259.5625 146.339844 261.421875 146.820312 263.011719 147.785156 C 264.597656 148.746094 265.8125 150.132812 266.660156 151.941406 C 267.503906 153.75 267.925781 155.863281 267.925781 158.285156 Z M 257.4375 150.976562 C 256.066406 150.976562 254.921875 151.429688 254.003906 152.335938 C 253.085938 153.238281 252.46875 154.496094 252.148438 156.097656 L 261.984375 156.097656 C 261.75 154.4375 261.253906 153.167969 260.496094 152.292969 C 259.738281 151.417969 258.71875 150.976562 257.4375 150.976562 Z M 257.4375 150.976562 "/>
<path style=" stroke:none;fill-rule:nonzero;fill:rgb(20.392157%,25.490196%,40%);fill-opacity:1;" d="M 27.113281 144.328125 L 12.910156 144.328125 L 12.910156 152.421875 L 24.230469 152.421875 L 24.230469 157.234375 L 12.910156 157.234375 L 12.910156 169.707031 L 7.140625 169.707031 L 7.140625 139.25 L 27.113281 139.25 Z M 27.113281 144.328125 "/>
<path style=" stroke:none;fill-rule:evenodd;fill:rgb(20.392157%,25.490196%,40%);fill-opacity:1;" d="M 38.671875 170.230469 C 36.371094 170.230469 34.34375 169.742188 32.597656 168.765625 C 30.847656 167.789062 29.5 166.394531 28.554688 164.585938 C 27.605469 162.78125 27.132812 160.679688 27.132812 158.285156 C 27.132812 155.894531 27.605469 153.792969 28.554688 151.984375 C 29.5 150.175781 30.847656 148.78125 32.597656 147.808594 C 34.34375 146.828125 36.371094 146.339844 38.671875 146.339844 C 40.976562 146.339844 43 146.828125 44.75 147.808594 C 46.496094 148.78125 47.84375 150.175781 48.792969 151.984375 C 49.738281 153.792969 50.210938 155.894531 50.210938 158.285156 C 50.210938 160.679688 49.738281 162.78125 48.792969 164.585938 C 47.84375 166.394531 46.496094 167.789062 44.75 168.765625 C 43 169.742188 40.976562 170.230469 38.671875 170.230469 Z M 38.671875 165.464844 C 40.394531 165.464844 41.734375 164.84375 42.695312 163.601562 C 43.65625 162.363281 44.136719 160.589844 44.136719 158.285156 C 44.136719 155.953125 43.65625 154.171875 42.695312 152.949219 C 41.734375 151.722656 40.394531 151.109375 38.671875 151.109375 C 36.953125 151.109375 35.613281 151.722656 34.652344 152.949219 C 33.691406 154.171875 33.210938 155.953125 33.210938 158.285156 C 33.210938 160.589844 33.691406 162.363281 34.652344 163.601562 C 35.613281 164.84375 36.953125 165.464844 38.671875 165.464844 Z M 38.671875 165.464844 "/>
<path style=" stroke:none;fill-rule:nonzero;fill:rgb(20.392157%,25.490196%,40%);fill-opacity:1;" d="M 73.886719 169.707031 L 68.601562 169.707031 L 67.769531 166.730469 C 66.28125 168.046875 64.980469 168.957031 63.855469 169.46875 C 62.734375 169.976562 61.460938 170.230469 60.03125 170.230469 C 58.664062 170.230469 57.417969 169.910156 56.292969 169.269531 C 55.171875 168.628906 54.300781 167.746094 53.671875 166.621094 C 53.046875 165.5 52.734375 164.238281 52.734375 162.835938 L 52.734375 146.867188 L 58.503906 146.867188 L 58.503906 159.554688 C 58.503906 161.394531 58.792969 162.78125 59.375 163.710938 C 59.960938 164.644531 60.804688 165.113281 61.914062 165.113281 C 62.84375 165.113281 63.71875 164.910156 64.535156 164.5 C 65.351562 164.09375 66.222656 163.433594 67.15625 162.53125 L 67.15625 146.867188 L 72.925781 146.867188 L 72.925781 164.632812 Z M 73.886719 169.707031 "/>
<path style=" stroke:none;fill-rule:nonzero;fill:rgb(20.392157%,25.490196%,40%);fill-opacity:1;" d="M 87.339844 146.339844 L 88.785156 146.339844 L 88.785156 152.027344 L 88.039062 152.027344 C 85.765625 152.027344 83.917969 152.65625 82.488281 153.910156 L 82.488281 169.707031 L 76.71875 169.707031 L 76.71875 151.941406 L 75.757812 146.867188 L 81.527344 146.867188 L 82.09375 149.882812 C 83.054688 148.570312 83.933594 147.652344 84.71875 147.128906 C 85.503906 146.601562 86.378906 146.339844 87.339844 146.339844 Z M 87.339844 146.339844 "/>
<path style=" stroke:none;fill-rule:nonzero;fill:rgb(20.392157%,25.490196%,40%);fill-opacity:1;" d="M 100.765625 138.726562 L 100.765625 146.867188 L 106.011719 146.867188 L 106.011719 151.152344 L 100.765625 151.152344 L 100.765625 162.179688 C 100.765625 164.398438 101.609375 165.507812 103.300781 165.507812 C 104.085938 165.507812 105.003906 165.230469 106.054688 164.675781 L 106.054688 169.445312 C 105.324219 169.707031 104.648438 169.902344 104.019531 170.035156 C 103.394531 170.167969 102.6875 170.230469 101.902344 170.230469 C 97.296875 170.230469 94.996094 167.546875 94.996094 162.179688 L 94.996094 151.152344 L 91.671875 151.152344 L 91.671875 146.867188 L 94.996094 146.867188 L 94.996094 140.738281 Z M 100.765625 138.726562 "/>
<path style=" stroke:none;fill-rule:nonzero;fill:rgb(20.392157%,25.490196%,40%);fill-opacity:1;" d="M 121.332031 146.339844 C 123.632812 146.339844 125.492188 147.019531 126.90625 148.375 C 128.316406 149.730469 129.023438 151.519531 129.023438 153.734375 L 129.023438 169.707031 L 123.253906 169.707031 L 123.253906 157.015625 C 123.253906 155.035156 122.957031 153.609375 122.359375 152.75 C 121.761719 151.890625 120.777344 151.460938 119.410156 151.460938 C 117.863281 151.460938 116.261719 152.320312 114.601562 154.042969 L 114.601562 169.707031 L 108.832031 169.707031 L 108.832031 136.714844 L 114.601562 136.714844 L 114.601562 149.230469 C 115.738281 148.207031 116.835938 147.46875 117.902344 147.019531 C 118.964844 146.566406 120.109375 146.339844 121.332031 146.339844 Z M 121.332031 146.339844 "/>
</g>
</svg>
